# xmcd
#
# Track frame offsets: 
#        150
#        13055
#        25462
#        40610
#        52070
#        66725
#        82460
#        98672
#        117980
#        134687
#        150647
#        167007
#
# Disc length: 2426 seconds
#
# Revision: 6
# Processed by: cddbd v1.5.2PL0 Copyright (c) Steve Scherf et al.
# Submitted via: ExactAudioCopy v0.95b4
#
DISCID=ac09780c
DTITLE=Jimi Hendrix Experience - Smash Hits
DYEAR=2002
DGENRE=Rock
TTITLE0=Purple Haze
TTITLE1=Fire
TTITLE2=The Wind Cries Mary
TTITLE3=Can You See Me
TTITLE4=51st Anniversary
TTITLE5=Hey Joe
TTITLE6=Stone Free
TTITLE7=The Stars That Play With Laughing Sam's Dice
TTITLE8=Manic Depression
TTITLE9=Highway Chile
TTITLE10=Burning Of The Midnight Lamp
TTITLE11=Foxy Lady
EXTD=YEAR: 1968
EXTT0=
EXTT1=
EXTT2=
EXTT3=
EXTT4=
EXTT5=
EXTT6=
EXTT7=
EXTT8=
EXTT9=
EXTT10=
EXTT11=
PLAYORDER=
